<svg xmlns="http://www.w3.org/2000/svg" width="98" height="88" viewBox="0 0 98 88">
    <g fill="#FFF" fill-rule="nonzero">
        <path d="M26.855 44.863c-1.883 0-3.025-.913-3.025-2.683V24.2H9.39v20.663H3.453c-1.998 0-3.026-.913-3.026-2.683V0h6.05C8.134 0 9.39.342 9.39 2.454v14.098H23.83V0h6.165c1.598 0 2.911.285 2.911 2.454v42.409h-6.05zM40.793 44.863c-1.731 0-2.759-.856-2.759-2.683V0h5.788c1.623 0 2.76.285 2.76 2.454v42.409h-5.789z"/>
        <path d="M47.468 44.735l-.164 8.666c.959-.855 8.693-.291 11.194 0 7.946.924 12.406 6.356 12.406 16.903 0 5.637-1.83 11.583-5.757 14.57-3.858 2.933-9.77 2.955-14.544 2.955-4.23 0-10.15.171-13.929.171-3.778 0 4.45-.154.83-.108l.085-8.552c2.791.086 7.685.04 9.083.04 2.482 0 9.166.443 11.843-1.214 2.787-2.206 3.518-4.345 3.518-7.862 0-3.795.225-6.379-2.495-8.63-2.376-1.965-7.934-1.324-12.696-1.324h-8.905l-.056-24.115h59.692v5.36c0 2.223-1.072 3.135-3.271 3.135l-46.834.005z"/>
    </g>
</svg>
